# xmcd
#
# Track frame offsets: 
#        150
#        11877
#        38567
#        58537
#        75214
#        89621
#        103477
#        115038
#        125269
#        144934
#        162650
#        180685
#        214919
#        228687
#        243121
#        261738
#
# Disc length: 3831 seconds
#
# Revision: 2
# Processed by: cddbd v1.5.2PL0 Copyright (c) Steve Scherf et al.
# Submitted via: ExactAudioCopy v1.0b3
#
DISCID=df0ef510
DTITLE=Miles Davis - A Selection Of His Most Influentual Work
DYEAR=2009
DGENRE=Jazz
TTITLE0=Milestones (With Charlie Parker)
TTITLE1=Ray's Idea (With Stan Getz)
TTITLE2=Miles Ahead
TTITLE3=Move
TTITLE4=Jeru
TTITLE5=Moon Dreams
TTITLE6=Budo
TTITLE7=Israel
TTITLE8=Darn That Dream
TTITLE9=52nd Street Theme (Miles Davis Quintet)
TTITLE10=Four
TTITLE11=Half Nelson
TTITLE12=A Night In Tunisia
TTITLE13=Bird Of Paradise
TTITLE14=Conception
TTITLE15=Out Of The Blue
EXTD=YEAR: 2009
EXTT0=
EXTT1=
EXTT2=
EXTT3=
EXTT4=
EXTT5=
EXTT6=
EXTT7=
EXTT8=
EXTT9=
EXTT10=
EXTT11=
EXTT12=
EXTT13=
EXTT14=
EXTT15=
PLAYORDER=
